<svg width="100" height="125" viewBox="0 0 100 125" fill="none" xmlns="http://www.w3.org/2000/svg">
<path d="M57.8993 53.9653C57.8993 50.1285 55.191 48.0104 50.434 48.0104H41.684V60.3715H49.0625C54.7569 60.3542 57.8993 58.0625 57.8993 53.9653ZM89.7569 51.743C88.1076 46.3785 87.8646 39.7986 88.0555 34.7118C88.2465 29.4167 84.1146 24.5555 78.559 24.5555H21.4757C15.9028 24.5555 11.7882 29.434 11.9792 34.7118C12.1528 39.7986 11.9271 46.3785 10.2778 51.743C8.6111 57.125 5.81597 60.5278 1.21527 60.9618V65.9097C5.7986 66.3437 8.6111 69.7465 10.2778 75.1285C11.9271 80.493 12.1701 87.0729 11.9792 92.1597C11.7882 97.4548 15.9201 102.316 21.4757 102.316H78.5417C84.1146 102.316 88.2292 97.4375 88.0382 92.1597C87.8646 87.0729 88.0903 80.493 89.7396 75.1285C91.4062 69.7465 94.2014 66.3437 98.7847 65.9097V60.9618C94.2187 60.5278 91.4062 57.125 89.7569 51.743ZM52.118 84.1215H35.1215V42.75H52.0312C59.5486 42.75 64.4792 46.8125 64.4792 53.0625C64.4792 57.4548 61.1632 61.3785 56.9271 62.0555V62.2812C62.691 62.9062 66.5625 66.8993 66.5625 72.4028C66.5625 79.7118 61.1285 84.1215 52.118 84.1215ZM50.3819 65.25H41.684V78.8611H50.7639C56.7014 78.8611 59.8437 76.4826 59.8437 72.0035C59.8437 67.5416 56.6146 65.25 50.3819 65.25Z" fill="black"/>
</svg>
