<svg width="100" height="125" viewBox="0 0 100 125" fill="none" xmlns="http://www.w3.org/2000/svg">
<path d="M14.7344 31.7095C14.7344 21.3765 23.1109 13 33.4439 13H65.5471C75.8801 13 84.2566 21.3765 84.2566 31.7095C84.2566 38.2523 80.898 44.0109 75.8107 47.3549C80.898 50.699 84.2566 56.4574 84.2566 63.0004C84.2566 73.3334 75.8801 81.71 65.5471 81.71H65.1408C60.2967 81.71 55.8824 79.8689 52.5598 76.8484V94.0873C52.5598 104.558 43.9643 113 33.5447 113C23.2375 113 14.7344 104.649 14.7344 94.2904C14.7344 87.7479 18.0927 81.9897 23.1795 78.6455C18.0927 75.3014 14.7344 69.543 14.7344 63.0004C14.7344 56.4574 18.093 50.699 23.1802 47.3549C18.093 44.0109 14.7344 38.2523 14.7344 31.7095ZM46.4312 50.4193H33.4439C26.4955 50.4193 20.8629 56.0522 20.8629 63.0004C20.8629 69.9219 26.4521 75.5379 33.3635 75.5812C33.3902 75.5811 33.417 75.5811 33.4439 75.5811H46.4312V50.4193ZM52.5598 63.0004C52.5598 69.9486 58.1924 75.5814 65.1408 75.5814H65.5471C72.4955 75.5814 78.1281 69.9486 78.1281 63.0004C78.1281 56.0522 72.4955 50.4193 65.5471 50.4193H65.1408C58.1924 50.4193 52.5598 56.0522 52.5598 63.0004ZM33.4439 81.71C33.417 81.71 33.3902 81.7098 33.3635 81.7098C26.4521 81.7529 20.8629 87.3689 20.8629 94.2904C20.8629 101.213 26.5708 106.871 33.5447 106.871C40.6311 106.871 46.4312 101.122 46.4312 94.0873V81.71H33.4439ZM33.4439 19.1285C26.4955 19.1285 20.8629 24.7612 20.8629 31.7095C20.8629 38.6578 26.4955 44.2904 33.4439 44.2904H46.4312V19.1285H33.4439ZM52.5598 44.2904H65.5471C72.4955 44.2904 78.1281 38.6578 78.1281 31.7095C78.1281 24.7612 72.4955 19.1285 65.5471 19.1285H52.5598V44.2904Z" fill="black"/>
</svg>
