<svg width="100" height="125" viewBox="0 0 100 125" fill="none" xmlns="http://www.w3.org/2000/svg">
<path d="M47.1625 82.2062C47.1156 82.2999 47.0688 82.3749 47.1625 82.2062V82.2062ZM86.0891 68.6124C82.9465 68.6114 79.8457 69.3332 77.0266 70.7218C76.1047 68.8624 75.1516 67.2374 74.9953 66.0187C74.8078 64.5968 74.6047 63.7531 74.8235 62.0656C75.0422 60.3781 76.0266 57.9874 76.011 57.8156C75.9953 57.6437 75.7922 56.7843 73.7766 56.7687C71.761 56.7531 70.0266 57.1593 69.825 57.6906C69.469 58.6614 69.1921 59.6595 68.9969 60.6749C68.6375 62.5031 64.9672 69.0343 62.8891 72.4406C62.2016 71.1124 61.6234 69.9406 61.4984 69.0031C61.3109 67.5812 61.1078 66.7374 61.3266 65.0499C61.5453 63.3624 62.5297 60.9718 62.5141 60.7999C62.4984 60.6281 62.2953 59.7687 60.2813 59.7531C58.2672 59.7374 56.5313 60.1437 56.3281 60.6749C56.125 61.2062 55.9063 62.4562 55.5 63.6593C55.0938 64.8624 50.2047 75.7374 48.925 78.5656C48.2688 80.0031 47.7063 81.1593 47.3 81.9406C47.2375 82.0656 47.1906 82.1437 47.1594 82.2062C47.2063 82.1281 47.2375 82.0499 47.2375 82.0812C46.8938 82.7531 46.6906 83.1281 46.6906 83.1281V83.1437C46.425 83.6437 46.1281 84.0968 45.9875 84.0968C45.8938 84.0968 45.6906 82.7843 46.0344 80.9874C46.7688 77.2062 48.5031 71.3312 48.4875 71.1281C48.4719 71.0187 48.8156 70.0031 47.3469 69.4562C45.925 68.9406 45.4094 69.7999 45.2844 69.7999C45.1594 69.7999 45.0656 70.1124 45.0656 70.1124C45.0656 70.1124 46.6438 63.4874 42.0359 63.4874C39.1609 63.4874 35.1609 66.6437 33.1953 69.5031C31.9609 70.1749 29.2891 71.6281 26.4766 73.1749C25.3984 73.7687 24.2891 74.3781 23.2422 74.9562C23.1641 74.8781 23.1016 74.7999 23.0234 74.7218C17.4313 68.7531 7.10625 64.5343 7.54375 56.5187C7.7 53.5968 8.71563 45.9249 27.3984 36.6124C42.7109 28.9874 54.9531 31.0812 57.0609 35.7374C60.0922 42.3781 50.5156 54.7374 34.6141 56.5187C28.5531 57.1906 25.3672 54.8468 24.5703 53.9718C23.7422 53.0499 23.6172 53.0031 23.3047 53.1749C22.7891 53.4562 23.1172 54.2687 23.3047 54.7531C23.7734 55.9874 25.7266 58.1749 29.0531 59.2687C31.975 60.2218 39.0813 60.7531 47.6734 57.4249C57.3266 53.7062 64.8406 43.3468 62.6375 34.6749C60.3938 25.8624 45.7813 22.9718 31.9641 27.8781C23.7313 30.7999 14.8281 35.3937 8.42344 41.3781C0.815626 48.5031 -0.401562 54.7062 0.0984377 57.2999C1.87813 66.5031 14.5625 72.5031 19.6391 76.9406C19.3891 77.0812 19.1547 77.2062 18.9359 77.3312C16.3906 78.5968 6.72031 83.6593 4.3 89.0031C1.56563 95.0656 4.75313 99.4093 6.84531 100.003C13.375 101.816 20.0609 98.5499 23.6531 93.1906C27.2453 87.8312 26.8094 80.8312 25.1531 77.6437C25.1375 77.5968 25.1063 77.5656 25.0906 77.5187C25.7469 77.1281 26.4188 76.7374 27.0906 76.3468C28.3859 75.5812 29.6516 74.8781 30.7609 74.2687C30.1359 75.9562 29.6828 77.9874 29.4484 80.9249C29.1672 84.3624 30.5891 88.8156 32.4328 90.5656C33.2453 91.3312 34.2281 91.3468 34.8375 91.3468C36.9938 91.3468 37.9625 89.5656 39.0391 87.4406C40.3672 84.8468 41.5391 81.8312 41.5391 81.8312C41.5391 81.8312 40.0703 89.9874 44.0859 89.9874C45.5531 89.9874 47.0219 88.0968 47.6797 87.1281V87.1437C47.6797 87.1437 47.7109 87.0812 47.7891 86.9562C47.9453 86.7218 48.0234 86.5812 48.0234 86.5812V86.5343C48.6172 85.5187 49.9141 83.1906 51.8656 79.3468C54.3969 74.3781 56.8172 68.1749 56.8172 68.1749C57.0511 69.5385 57.3747 70.8852 57.7859 72.2062C58.2234 73.6906 59.1453 75.3156 59.8797 76.8937C59.2859 77.7062 58.9266 78.1749 58.9266 78.1749C58.9277 78.1869 58.9333 78.1981 58.9422 78.2062C58.4734 78.8312 57.9422 79.5031 57.3953 80.1593C55.3969 82.5343 53.0203 85.2531 52.7078 86.0343C52.3328 86.9562 52.4266 87.6437 53.1453 88.1749C53.6766 88.5812 54.6141 88.6437 55.5969 88.5656C57.3938 88.4406 58.6594 88.0031 59.2688 87.7218C60.3922 87.319 61.4539 86.7615 62.4234 86.0656C64.3766 84.6281 65.5641 82.5656 65.4547 79.8468C65.3922 78.3468 64.9078 76.8468 64.3141 75.4406C64.4859 75.1906 64.6735 74.9249 64.8453 74.6593C67.9375 70.1437 70.3281 65.1874 70.3281 65.1874C70.562 66.551 70.8856 67.8977 71.2969 69.2187C71.6719 70.4843 72.4047 71.8749 73.0766 73.2343C70.1719 75.5937 68.375 78.3281 67.75 80.1249C66.5938 83.4531 67.5 84.9531 69.2031 85.2968C69.9688 85.4531 71.0625 85.0937 71.875 84.7499C73.0817 84.348 74.2194 83.7631 75.2485 83.0156C77.2016 81.5781 79.0906 79.5624 78.9656 76.8281C78.9188 75.5937 78.575 74.3593 78.1219 73.1718C80.575 72.1406 83.761 71.5781 87.8235 72.0468C96.5235 73.0624 98.2266 78.4999 97.8985 80.7656C97.5703 83.0312 95.7422 84.2968 95.1328 84.6718C94.5235 85.0468 94.336 85.1874 94.3828 85.4687C94.461 85.8749 94.7422 85.8593 95.2578 85.7656C95.9766 85.6406 99.8188 83.9218 99.9906 79.7187C100.241 74.4062 95.1328 68.5624 86.0844 68.6093L86.0891 68.6124ZM19.0297 91.2218C16.1563 94.3624 12.125 95.5499 10.3922 94.5499C8.53281 93.4687 9.26719 88.8468 12.8125 85.4999C14.9688 83.4687 17.7484 81.5937 19.5922 80.4374C20.0141 80.1874 20.6234 79.8124 21.3734 79.3593C21.4984 79.2812 21.5609 79.2499 21.5609 79.2499C21.7016 79.1562 21.8578 79.0781 22.0141 78.9843C23.3094 83.7343 22.0609 87.9218 19.0297 91.2187V91.2218ZM40.0234 76.9406C39.0234 79.3937 36.9156 85.6437 35.6344 85.3156C34.5406 85.0343 33.8688 80.2687 35.4156 75.5812C36.1969 73.2218 37.8531 70.4093 38.8375 69.3156C40.4141 67.5499 42.1484 66.9874 42.5547 67.6906C43.1016 68.6124 40.6484 75.4093 40.0234 76.9406ZM57.3672 85.2218C56.9453 85.4406 56.5547 85.5812 56.3672 85.4718C56.2266 85.3937 56.5391 85.0968 56.5391 85.0968C56.5391 85.0968 58.7109 82.7687 59.5703 81.7062C60.0703 81.0812 60.6485 80.3468 61.2719 79.5343C61.2719 79.6124 61.2875 79.6906 61.2875 79.7843C61.2672 82.5812 58.5813 84.4718 57.3625 85.2218H57.3672ZM70.7391 82.1749C70.4266 81.9562 70.4735 81.2218 71.5203 78.9406C71.9266 78.0499 72.8625 76.5499 74.4891 75.1124C74.6732 75.6566 74.7733 76.2256 74.786 76.7999C74.7703 80.3156 72.2547 81.6281 70.7406 82.1749H70.7391Z" fill="black"/>
</svg>
