<svg width="100" height="125" viewBox="0 0 100 125" fill="none" xmlns="http://www.w3.org/2000/svg">
<path d="M4.33594 19.25C3.92555 19.2448 3.51816 19.3206 3.13704 19.4729C2.75592 19.6252 2.40853 19.851 2.11472 20.1376C1.8209 20.4242 1.58641 20.7658 1.42464 21.143C1.26286 21.5202 1.17697 21.9255 1.17188 22.3359C1.17517 22.5188 1.18821 22.7013 1.21094 22.8828L14.4727 103.371C14.6368 104.358 15.144 105.256 15.9049 105.907C16.6659 106.557 17.6319 106.918 18.6328 106.926H82.2461C82.994 106.936 83.7206 106.677 84.294 106.197C84.8675 105.717 85.2496 105.047 85.3711 104.309L98.6328 22.9023C98.7625 22.0868 98.5641 21.2531 98.0811 20.5834C97.598 19.9137 96.8695 19.4624 96.0547 19.3281C95.8733 19.3047 95.6907 19.2917 95.5078 19.2891L4.33594 19.25ZM60.1758 77.4141H39.8633L34.375 48.7031H65.0977L60.1758 77.4141Z" fill="black"/>
</svg>
