<svg width="100" height="125" viewBox="0 0 100 125" fill="none" xmlns="http://www.w3.org/2000/svg">
<path d="M0 13.1428V113.143H100V13.1428H0ZM54.4196 91.1339C54.4196 100.866 48.7054 105.308 40.3795 105.308C32.8571 105.308 28.5045 101.424 26.2723 96.7142L33.9286 92.0937C35.4018 94.7053 36.7411 96.9151 39.9777 96.9151C43.058 96.9151 45.0223 95.7098 45.0223 91V59.058H54.4196V91.1339V91.1339ZM76.6518 105.308C67.9241 105.308 62.2768 101.156 59.5313 95.7098L67.1875 91.2901C69.1964 94.5714 71.8304 97.0044 76.4509 97.0044C80.3348 97.0044 82.8348 95.0625 82.8348 92.3616C82.8348 89.1473 80.2902 88.0089 75.9821 86.1116L73.6384 85.1071C66.8527 82.2276 62.3661 78.5892 62.3661 70.933C62.3661 63.8794 67.7455 58.5223 76.1161 58.5223C82.0982 58.5223 86.3839 60.5982 89.4643 66.0446L82.1429 70.7321C80.5357 67.8526 78.7946 66.7142 76.0937 66.7142C73.3482 66.7142 71.6071 68.4553 71.6071 70.7321C71.6071 73.5446 73.3482 74.683 77.3884 76.4464L79.7321 77.4509C87.7232 80.866 92.2098 84.3705 92.2098 92.2276C92.2098 100.665 85.558 105.308 76.6518 105.308V105.308Z" fill="black"/>
</svg>
