<svg width="100" height="125" viewBox="0 0 100 125" fill="none" xmlns="http://www.w3.org/2000/svg">
<path d="M50 33.4101C76.7812 33.4101 97.375 47.5113 97.375 62.9992C97.375 78.4872 76.7656 92.5884 50 92.5884C23.2188 92.5884 2.625 78.4872 2.625 62.9992C2.625 47.5113 23.2344 33.4101 50 33.4101ZM50 30.1289C22.3906 30.1289 0 44.8356 0 62.9992C0 81.1629 22.3906 95.8696 50 95.8696C77.6094 95.8696 100 81.1629 100 62.9992C100 44.8356 77.6094 30.1289 50 30.1289ZM34.0937 60.3626C32.8594 68.2726 28.5 67.4523 23.1406 67.4523L25.2813 53.6635C31.2188 53.6635 35.25 52.8628 34.0937 60.3626ZM15.2188 81.4168H20.9531L22.3125 72.667C28.7344 72.667 32.7187 73.2529 36.4062 68.9366C40.4844 64.2492 41.5469 55.9096 38.6406 51.73C37.125 49.5425 34.6875 48.4683 31.375 48.4683H20.3281L15.2188 81.4168ZM44.2344 39.699H49.9375L48.5781 48.4488C53.5 48.4488 58.0625 47.9996 60.2656 50.5386C62.5781 53.1948 61.4687 56.5931 58.9687 72.6279H53.1875C55.5937 57.1205 56.0469 55.8314 55.1719 54.6596C54.3281 53.5268 52.4063 53.7612 47.7656 53.7612L44.8281 72.6279H39.125L44.2344 39.699V39.699ZM78.9062 60.3626C77.6562 68.3897 73.1719 67.4523 67.9531 67.4523L70.0938 53.6635C76.0625 53.6635 80.0625 52.8628 78.9062 60.3626V60.3626ZM60.0313 81.4168H65.7812L67.1406 72.667C73.8906 72.667 77.625 73.1553 81.2344 68.9366C85.3125 64.2492 86.375 55.9096 83.4688 51.73C81.9531 49.5425 79.5156 48.4683 76.2031 48.4683H65.1562L60.0313 81.4168V81.4168Z" fill="black"/>
</svg>
