<svg width="100" height="125" viewBox="0 0 100 125" fill="none" xmlns="http://www.w3.org/2000/svg">
<path d="M66.1406 91.8594C66.1406 95.8125 62.9688 98.9844 59.0156 98.9844C55.0625 98.9844 51.8594 95.8125 51.8594 91.8594C51.8594 87.9062 55.0781 84.7031 59.0156 84.7031C62.9844 84.7031 66.1406 87.9062 66.1406 91.8594ZM26.4687 84.7031C22.5156 84.7031 19.3438 87.9219 19.3438 91.8594C19.3438 95.7969 22.5156 98.9844 26.4687 98.9844C30.4219 98.9844 33.625 95.8125 33.625 91.8594C33.625 87.9062 30.4219 84.7031 26.4687 84.7031V84.7031ZM72.0469 42.5156C24.8281 42.5156 12.7969 40.5156 0 27.0156C5.375 35.0937 8.32813 50.2812 58.2969 49.5469C110.375 48.7656 78.6094 63 69.3594 79.0625C98.5312 53.0156 119.266 42.5156 72.0469 42.5156V42.5156Z" fill="black"/>
</svg>
