<svg width="100" height="125" viewBox="0 0 100 125" fill="none" xmlns="http://www.w3.org/2000/svg">
<path d="M67.852 34.1203C59.8668 27.1521 52.2745 20.4902 50.0111 13C47.7885 20.4902 40.1337 27.1521 32.1494 34.1203C20.1936 44.582 6.63284 56.4289 6.63284 74.218C6.11118 95.175 25.1046 112.534 49.0561 112.991C73.0077 113.447 92.8469 96.8281 93.3685 75.8711C93.3821 75.3202 93.3821 74.7691 93.3685 74.218C93.3685 56.4289 79.8078 44.582 67.852 34.1203ZM28.9393 77.675C27.6134 79.1339 26.4748 80.7159 25.5439 82.3924C25.4747 82.5253 25.3722 82.643 25.2439 82.7365C25.1157 82.83 24.965 82.8971 24.803 82.9326H24.4327C23.4655 82.9326 22.3749 81.2762 22.3749 81.2762C22.0869 80.8801 21.8193 80.4658 21.5519 80.0338L21.3666 79.6916C18.856 74.6682 21.0373 67.5201 21.0373 67.5201C22.1126 64.0363 23.8668 60.741 26.2229 57.7793C27.6627 55.8985 29.2296 54.0947 30.9154 52.3775L32.9733 54.1781L42.6859 62.8566C42.8681 63.0349 42.9689 63.2657 42.9689 63.5049C42.9689 63.7441 42.8681 63.9748 42.6859 64.1531L32.5404 74.002L28.9393 77.675ZM50.5048 102.54C47.6186 102.526 44.7983 101.783 42.3824 100.402C39.9665 99.0197 38.0575 97.0574 36.8845 94.7499C35.7115 92.4424 35.3242 89.8878 35.7691 87.3925C36.214 84.8972 37.4722 82.5672 39.3928 80.682C42.5625 77.3869 46.4304 74.1461 50.6283 69.8787C55.608 74.5242 58.8594 77.7107 62.049 81.2041C62.2989 81.4735 62.5194 81.7629 62.7075 82.0684C64.4522 84.2405 65.3865 86.8316 65.3825 89.4865C65.388 91.196 65.0085 92.8898 64.2659 94.471C63.5232 96.0522 62.4319 97.4899 61.0542 98.7021C59.6765 99.9142 58.0394 100.877 56.2364 101.536C54.4335 102.194 52.4999 102.536 50.5461 102.54H50.5048ZM78.6553 81.6719C78.5596 81.9411 78.3798 82.1815 78.1362 82.3661C77.8926 82.5506 77.5949 82.6719 77.2767 82.7162H76.9877C76.3974 82.5488 75.8989 82.196 75.5883 81.726V81.726C72.988 78.3131 70.0403 75.1131 66.781 72.165L62.8104 68.5645L49.6211 56.5908C46.8511 54.3451 44.2137 51.9773 41.7192 49.4967C41.6578 49.4027 41.589 49.3125 41.5134 49.2268C41.0647 48.6748 40.7113 48.0681 40.4642 47.4262V47.084C40.2815 46.1051 40.3733 45.1021 40.7317 44.1612C41.0902 43.2202 41.7045 42.3696 42.5219 41.6824C45.0737 39.4498 47.6458 37.1992 50.074 34.8584C52.7491 37.4512 55.6098 39.9365 58.4286 42.4027C64.1798 47.0891 69.3841 52.2643 73.9646 57.852C77.832 62.6433 79.9355 68.3535 79.994 74.2191C79.9611 76.7469 79.5102 79.2572 78.6553 81.6719V81.6719Z" fill="black"/>
</svg>
