<svg width="100" height="125" viewBox="0 0 100 125" fill="none" xmlns="http://www.w3.org/2000/svg">
<g clip-path="url(#clip0_4_132)">
<path d="M98.1135 59.1028L54.4641 20.9003C53.2558 19.844 51.6175 19.2506 49.9094 19.2506C48.2013 19.2506 46.5631 19.844 45.3548 20.9003L36.2789 28.8357L47.7789 38.8981C53.819 37.1129 59.5377 42.1734 57.4641 47.4292L68.5489 57.1282C76.1895 54.8236 82.2051 63.1828 76.4663 68.2003C70.5533 73.374 60.7944 67.6397 63.9663 60.9074L53.6204 51.8666V75.665C59.2677 78.1142 58.5891 83.8387 55.6471 86.407C54.2098 87.6639 52.2608 88.37 50.2286 88.37C48.1965 88.37 46.2475 87.6639 44.8101 86.407C40.8883 82.9696 42.3391 77.245 47.3213 75.4697V51.4467C42.6784 49.7846 41.8302 45.4429 43.1606 42.6578L31.8236 32.7263L1.88615 58.925C0.678338 59.9821 -0.000183105 61.4156 -0.000183105 62.9103C-0.000183105 64.4051 0.678338 65.8386 1.88615 66.8956L45.549 105.098C46.7569 106.154 48.3948 106.748 50.1025 106.748C51.8102 106.748 53.4481 106.154 54.6561 105.098L98.1135 67.0733C99.3213 66.0163 99.9998 64.5828 99.9998 63.0881C99.9998 61.5933 99.3213 60.1598 98.1135 59.1028V59.1028Z" fill="black"/>
</g>
<defs>
<clipPath id="clip0_4_132">
<rect width="100" height="100" fill="white" transform="translate(0 13)"/>
</clipPath>
</defs>
</svg>
