<svg width="101" height="100" viewBox="0 0 101 100" fill="none" xmlns="http://www.w3.org/2000/svg">
<path d="M22.3844 100H1.65182V33.2351H22.3844V100ZM12.007 24.1278C5.37735 24.1278 0 18.6366 0 12.007C4.74519e-08 8.82252 1.26502 5.7685 3.51676 3.51676C5.7685 1.26502 8.82252 0 12.007 0C15.1914 0 18.2454 1.26502 20.4972 3.51676C22.7489 5.7685 24.0139 8.82252 24.0139 12.007C24.0139 18.6366 18.6343 24.1278 12.007 24.1278ZM99.9799 100H79.292V67.4993C79.292 59.7536 79.1357 49.8203 68.5127 49.8203C57.7334 49.8203 56.0816 58.2357 56.0816 66.9412V100H35.3713V33.2351H55.2557V42.3425H55.5459C58.3138 37.0968 65.0751 31.561 75.1624 31.561C96.145 31.561 100.002 45.3782 100.002 63.3251V100H99.9799Z" fill="black"/>
</svg>
