<svg width="100" height="125" viewBox="0 0 100 125" fill="none" xmlns="http://www.w3.org/2000/svg">
<path d="M81.6797 47.6091C80.625 47.2576 79.5703 46.9255 78.5156 46.613C78.6914 45.8904 78.8477 45.1677 79.0039 44.4451C81.4063 32.8046 79.8242 23.4492 74.4922 20.3633C69.3555 17.4141 60.9766 20.4805 52.5 27.8632C51.6602 28.5859 50.8398 29.3476 50.0586 30.1093C49.5312 29.6015 48.9844 29.0937 48.4375 28.6054C39.5508 20.7148 30.6445 17.3945 25.3125 20.5C20.1953 23.4687 18.6719 32.2772 20.8203 43.2928C21.0352 44.3865 21.2695 45.4607 21.543 46.5544C20.293 46.906 19.0625 47.2966 17.9102 47.7068C7.48047 51.32 0 57.0231 0 62.9215C0 69.0152 7.96875 75.1284 18.8086 78.8393C19.6875 79.1323 20.5664 79.4253 21.4648 79.6792C21.1719 80.851 20.918 82.0034 20.6836 83.1948C18.6328 94.0345 20.2344 102.628 25.3516 105.577C30.625 108.624 39.4922 105.499 48.125 97.9407C48.8086 97.3353 49.4922 96.7103 50.1758 96.0462C51.0352 96.886 51.9336 97.6868 52.832 98.4681C61.1914 105.655 69.4531 108.566 74.5508 105.616C79.8242 102.57 81.543 93.3314 79.3164 82.0815C79.1406 81.2221 78.9453 80.3432 78.7305 79.4448C79.3555 79.269 79.9609 79.0737 80.5664 78.8784C91.8359 75.1479 100 69.1128 100 62.9215C100 57.0036 92.3047 51.2614 81.6797 47.6091V47.6091ZM55.2539 31.0272C62.5195 24.6992 69.2969 22.2187 72.3828 23.9961C75.6836 25.8906 76.9531 33.5467 74.8828 43.6053C74.7461 44.2693 74.6094 44.9138 74.4336 45.5584C70.0977 44.5818 65.7031 43.8787 61.2891 43.4881C58.75 39.8553 55.9766 36.3788 52.9688 33.1171C53.7305 32.3944 54.4727 31.7108 55.2539 31.0272V31.0272ZM32.6562 73.0581C33.6523 74.7573 34.668 76.4565 35.7422 78.1167C32.6953 77.7846 29.668 77.2964 26.6797 76.6518C27.5391 73.8394 28.6133 70.9292 29.8633 67.9605C30.7617 69.6792 31.6797 71.3785 32.6562 73.0581V73.0581ZM26.7383 49.5622C29.5508 48.9372 32.5391 48.4294 35.6445 48.0388C34.6094 49.6599 33.5938 51.32 32.6367 52.9997C31.6797 54.6598 30.7422 56.3591 29.8633 58.0778C28.6328 55.1677 27.5977 52.3161 26.7383 49.5622ZM32.0898 63.0191C33.3789 60.3239 34.7852 57.6872 36.2695 55.0895C37.7539 52.4919 39.3555 49.9724 41.0352 47.4919C43.9648 47.2771 46.9531 47.1599 50 47.1599C53.0469 47.1599 56.0547 47.2771 58.9648 47.4919C60.625 49.9529 62.207 52.4724 63.7109 55.0505C65.2148 57.6286 66.6211 60.2653 67.9492 62.941C66.6406 65.6363 65.2344 68.2925 63.7305 70.9097C62.2461 73.5073 60.6641 76.0268 59.0039 78.5268C56.0938 78.7417 53.0664 78.8393 50 78.8393C46.9336 78.8393 43.9648 78.7417 41.0937 78.5659C39.3945 76.0854 37.793 73.5464 36.2891 70.9488C34.7852 68.3511 33.3984 65.7144 32.0898 63.0191ZM67.3633 73.0191C68.3594 71.3003 69.2969 69.5621 70.2148 67.8043C71.4648 70.6363 72.5586 73.5073 73.5156 76.4565C70.4883 77.1401 67.4219 77.6675 64.3359 78.019C65.3906 76.3784 66.3867 74.6987 67.3633 73.0191ZM70.1758 58.0778C69.2578 56.3591 68.3203 54.6403 67.3437 52.9606C66.3867 51.3005 65.3906 49.6599 64.3555 48.0388C67.5 48.4294 70.5078 48.9568 73.3203 49.6013C72.4219 52.4919 71.3672 55.3044 70.1758 58.0778V58.0778ZM50.0391 36.1053C52.0898 38.3319 54.0234 40.6756 55.8203 43.0974C51.9531 42.9217 48.0664 42.9217 44.1992 43.0974C46.1133 40.5779 48.0859 38.2342 50.0391 36.1053ZM27.3828 24.1328C30.6641 22.2187 37.9492 24.9531 45.625 31.7499C46.1133 32.1796 46.6016 32.6483 47.1094 33.1171C44.082 36.3788 41.2891 39.8553 38.7305 43.4881C34.3164 43.8787 29.9414 44.5623 25.6055 45.5193C25.3516 44.5232 25.1367 43.5076 24.9219 42.492C23.0859 33.0389 24.2969 25.9101 27.3828 24.1328V24.1328ZM22.5977 75.6167C21.7773 75.3823 20.9766 75.1284 20.1758 74.855C16.0156 73.5464 11.2891 71.4761 7.87109 68.7613C5.89844 67.3941 4.57031 65.2848 4.19922 62.9215C4.19922 59.3473 10.3711 54.777 19.2773 51.6716C20.3906 51.281 21.5234 50.9294 22.6562 50.5974C23.9844 54.8356 25.5859 58.9957 27.4414 63.0191C25.5664 67.1011 23.9453 71.3199 22.5977 75.6167V75.6167ZM45.3711 94.7572C42.1484 97.7063 38.418 100.05 34.3555 101.652C32.1875 102.687 29.6875 102.784 27.4609 101.906C24.3555 100.109 23.0664 93.2142 24.8242 83.9369C25.0391 82.8432 25.2734 81.7495 25.5469 80.6752C29.9219 81.6127 34.3359 82.2573 38.8086 82.5893C41.3867 86.2416 44.2187 89.7377 47.2461 93.0189C46.6211 93.6244 45.9961 94.2103 45.3711 94.7572ZM50.1562 90.0111C48.1641 87.8627 46.1719 85.4799 44.2383 82.9213C46.1133 82.9994 48.0469 83.0385 50 83.0385C52.0117 83.0385 53.9844 82.9994 55.9375 82.9018C54.1406 85.3822 52.207 87.7455 50.1562 90.0111V90.0111ZM75.6836 95.8704C75.5078 98.2532 74.3359 100.48 72.4609 101.984C69.3555 103.781 62.7344 101.437 55.5859 95.304C54.7656 94.6009 53.9453 93.8392 53.1055 93.0579C56.0937 89.7572 58.8477 86.2611 61.3477 82.5893C65.8203 82.2182 70.2734 81.5346 74.668 80.5385C74.8633 81.3393 75.0391 82.1401 75.1953 82.9213C76.1523 87.14 76.3086 91.5345 75.6836 95.8704V95.8704ZM79.2383 74.8745C78.6914 75.0503 78.1445 75.2261 77.5781 75.3823C76.2109 71.1245 74.5313 66.9644 72.5977 62.9215C74.4727 58.9372 76.0547 54.8356 77.3828 50.6364C78.3984 50.9294 79.375 51.2419 80.3125 51.5544C89.4141 54.6794 95.8008 59.3278 95.8008 62.8824C95.8008 66.7105 88.9844 71.6519 79.2383 74.8745ZM50 71.9448C54.9414 71.9448 58.9453 67.941 58.9453 62.9996C58.9453 58.0583 54.9414 54.0544 50 54.0544C45.0586 54.0544 41.0547 58.0583 41.0547 62.9996C41.0547 67.941 45.0586 71.9448 50 71.9448Z" fill="black"/>
</svg>
