<svg width="100" height="125" viewBox="0 0 100 125" fill="none" xmlns="http://www.w3.org/2000/svg">
<g clip-path="url(#clip0_4_177)">
<path d="M86.2832 14.875H14.0528C7.3926 14.875 2.00003 20.2676 2.00003 26.9062C1.97854 26.9062 2.00003 26.0469 2.00003 99.0938C2.00003 105.732 7.39261 111.125 14.0313 111.125H86.2617C92.8789 111.082 98.2285 105.711 98.2285 99.0938V26.9062C98.25 20.2891 92.9004 14.918 86.2832 14.875V14.875ZM44.3242 87.7715C44.2813 90.9297 41.7246 93.4863 38.5449 93.4863H20.7774C17.5977 93.5078 14.9981 90.9512 14.9766 87.7715V33.1582C14.9766 29.9785 17.5547 27.3789 20.7559 27.3789H38.5664C41.7461 27.3789 44.3457 29.957 44.3457 33.1582V87.7715H44.3242ZM85.8106 63.709C85.8106 66.8887 83.2324 69.4883 80.0313 69.4883H62.6289C59.4492 69.4883 56.8496 66.9102 56.8496 63.709V33.1797C56.8496 30 59.4278 27.4004 62.6074 27.4004H80.0313C83.211 27.4004 85.8106 29.9785 85.8106 33.1797V63.709Z" fill="black"/>
</g>
<defs>
<clipPath id="clip0_4_177">
<rect width="96.25" height="110" fill="white" transform="translate(2 8)"/>
</clipPath>
</defs>
</svg>
