<svg width="100" height="125" viewBox="0 0 100 125" fill="none" xmlns="http://www.w3.org/2000/svg">
<path d="M12.0508 46.0859L31.875 100.383C18.0078 93.6641 8.45703 79.4453 8.45703 63C8.45703 56.9648 9.74609 51.2617 12.0508 46.0859V46.0859ZM78.0469 60.9102C78.0469 55.7734 76.2109 52.2188 74.6289 49.4453C72.5195 46.0273 70.5469 43.1172 70.5469 39.6992C70.5469 35.8711 73.4375 32.3164 77.5195 32.3164C77.6953 32.3164 77.8711 32.3359 78.0664 32.3555C70.6641 25.5781 60.8203 21.4375 50 21.4375C35.4883 21.4375 22.7148 28.8789 15.2734 40.168C16.25 40.207 17.168 40.2266 17.9492 40.2266C22.2852 40.2266 29.0234 39.6992 29.0234 39.6992C31.2695 39.5625 31.5234 42.8633 29.2969 43.1172C29.2969 43.1172 27.0508 43.3711 24.5508 43.5078L39.6875 88.5078L48.7891 61.2422L42.3242 43.5078C40.0781 43.3711 37.9687 43.1172 37.9687 43.1172C35.7227 42.9805 35.9961 39.5625 38.2227 39.6992C38.2227 39.6992 45.0781 40.2266 49.1602 40.2266C53.4961 40.2266 60.2344 39.6992 60.2344 39.6992C62.4805 39.5625 62.7344 42.8633 60.5078 43.1172C60.5078 43.1172 58.2617 43.3711 55.7617 43.5078L70.7812 88.1758L74.9219 74.3281C76.6797 68.5859 78.0469 64.4648 78.0469 60.9102ZM50.7227 66.6328L38.2617 102.863C41.9922 103.957 45.918 104.562 50 104.562C54.8437 104.562 59.4727 103.723 63.7891 102.199C63.6719 102.023 63.5742 101.828 63.4961 101.633L50.7227 66.6328ZM86.4648 43.0586C86.6406 44.3867 86.7383 45.793 86.7383 47.3359C86.7383 51.5547 85.957 56.2813 83.5742 62.2188L70.8789 98.918C83.2422 91.7109 91.543 78.332 91.543 63C91.543 55.7734 89.707 48.9766 86.4648 43.0586V43.0586ZM98.4375 63C98.4375 89.7188 76.6992 111.438 50 111.438C23.2812 111.438 1.5625 89.6992 1.5625 63C1.5625 36.2812 23.2812 14.5625 50 14.5625C76.6992 14.5625 98.4375 36.2812 98.4375 63ZM96.2109 63C96.2109 37.5117 75.4687 16.7891 50 16.7891C24.5117 16.7891 3.78906 37.5117 3.78906 63C3.78906 88.4883 24.5313 109.211 50 109.211C75.4883 109.211 96.2109 88.4883 96.2109 63Z" fill="black"/>
</svg>
